# xmcd
#
# Track frame offsets:
#	150
#	15078
#	29199
#	43898
#	62623
#	81041
#	99506
#	117399
#	138038
#	155196
#	171935
#	188782
#	204947
#	218639
#	232592
#	249768
#	273860
#	301006
#	322131
#
# Disc length: 4731 seconds
#
# Revision: 0
# Processed by: cddbd v1.5.1PL2 Copyright (c) Steve Scherf et al.
# Submitted via: dBpowerAMP V4.0
#
DISCID=f4127913
DTITLE=Various Artist - mi historia
DYEAR=1900
DGENRE=
TTITLE0=Nadie - 
TTITLE1=Como Sera - 
TTITLE2=Como tu quieras - 
TTITLE3=Hijo - 
TTITLE4=lloro por ti - DAnial Agostini
TTITLE5=una noche mas - 
TTITLE6=te voy a extrañar - 
TTITLE7=solo - 
TTITLE8=enganchados - 
TTITLE9=en ti confie - 
TTITLE10=siempre te amare - 
TTITLE11=quien sera - 
TTITLE12=me estoy volviendo loco - 
TTITLE13=te doy mi amor - 
TTITLE14=como yo te quise - 
TTITLE15=el realito - puertas cerradas - 
TTITLE16=triste amor - dime amor - 
TTITLE17=y que has hecho de mi - 
TTITLE18=boquita de caramelo - porque yo - otra noche - 
EXTD=
EXTT0=
EXTT1=
EXTT2=
EXTT3=
EXTT4=
EXTT5=
EXTT6=
EXTT7=
EXTT8=
EXTT9=
EXTT10=
EXTT11=
EXTT12=
EXTT13=
EXTT14=
EXTT15=
EXTT16=
EXTT17=
EXTT18=
PLAYORDER=
